<svg id="svg" version="1.1" xmlns="http://www.w3.org/2000/svg" xmlns:xlink="http://www.w3.org/1999/xlink" width="400" height="320.5882352941176" viewBox="0, 0, 400,320.5882352941176"><g id="svgg"><path id="path0" d="M191.958 5.083 C 189.477 5.530,188.373 12.433,190.399 14.840 C 190.947 15.492,191.164 16.052,191.048 16.515 C 189.787 21.540,194.869 30.911,201.160 35.162 C 202.327 35.950,203.616 36.950,204.023 37.384 C 204.430 37.817,204.926 38.172,205.126 38.172 C 205.326 38.172,205.964 38.522,206.545 38.951 C 207.125 39.379,208.200 39.829,208.933 39.951 C 209.665 40.073,210.800 40.445,211.455 40.776 C 212.555 41.334,213.530 41.379,224.366 41.379 C 230.812 41.379,236.087 41.497,236.087 41.640 C 236.087 42.042,232.958 48.036,232.351 48.798 C 232.158 49.040,231.897 49.816,231.771 50.521 C 231.645 51.227,231.284 52.237,230.969 52.767 C 230.655 53.296,230.316 54.162,230.217 54.691 C 230.118 55.221,229.580 56.628,229.022 57.819 L 228.007 59.984 130.283 60.032 C 76.534 60.059,32.161 60.050,31.676 60.012 C 31.191 59.974,30.794 60.092,30.794 60.274 C 30.794 60.456,30.607 60.533,30.378 60.446 C 28.555 59.746,27.362 69.165,28.912 72.013 C 29.200 72.542,29.537 73.769,29.662 74.739 C 29.956 77.038,30.763 79.872,31.122 79.872 C 31.278 79.872,31.546 80.380,31.717 81.001 C 32.343 83.268,32.930 84.082,36.400 87.492 C 40.546 91.566,42.191 92.894,43.483 93.213 C 44.002 93.341,44.876 93.786,45.425 94.201 C 45.995 94.632,46.955 94.989,47.662 95.033 C 48.343 95.074,49.239 95.397,49.653 95.750 C 51.121 97.001,50.633 96.995,159.904 97.185 C 263.572 97.364,267.416 97.392,268.899 97.966 C 271.025 98.790,271.579 99.865,270.901 101.861 C 270.630 102.658,270.409 103.463,270.409 103.649 C 270.409 103.836,270.120 104.356,269.767 104.804 C 269.415 105.253,269.126 105.869,269.126 106.173 C 269.126 106.478,268.758 107.269,268.309 107.931 C 267.859 108.594,267.403 109.588,267.295 110.141 C 267.187 110.694,266.702 111.941,266.217 112.911 C 264.975 115.396,263.673 118.580,263.673 119.132 C 263.673 119.388,263.310 120.029,262.867 120.556 C 262.423 121.083,261.935 122.185,261.782 123.006 C 261.628 123.826,261.216 124.813,260.866 125.200 C 260.515 125.586,260.128 126.328,260.004 126.848 C 259.867 127.423,259.689 127.647,259.548 127.419 C 259.414 127.202,259.141 127.682,258.901 128.558 C 258.328 130.642,257.860 131.836,257.615 131.836 C 257.502 131.836,257.230 132.594,257.010 133.520 C 256.790 134.447,256.251 135.941,255.811 136.840 C 255.372 137.740,255.012 138.614,255.012 138.782 C 255.012 138.950,254.599 139.657,254.095 140.354 C 253.317 141.428,252.818 142.925,252.690 144.569 C 252.673 144.780,252.526 144.924,252.363 144.890 C 252.199 144.856,251.946 145.044,251.801 145.309 C 250.819 147.094,249.928 149.163,249.729 150.120 C 249.601 150.738,249.149 151.846,248.726 152.583 C 248.302 153.320,247.955 154.174,247.955 154.480 C 247.955 154.786,247.169 156.522,246.208 158.337 C 245.247 160.153,244.360 162.186,244.235 162.856 C 244.111 163.526,243.681 164.507,243.280 165.036 C 242.880 165.565,242.439 166.431,242.300 166.961 L 242.049 167.923 241.832 166.961 C 241.654 166.170,241.609 166.293,241.578 167.650 C 241.547 168.969,241.313 169.638,240.417 170.970 C 239.800 171.888,239.294 172.768,239.294 172.926 C 239.294 173.431,237.026 175.746,236.308 175.974 C 235.929 176.094,235.245 176.469,234.789 176.806 C 233.875 177.482,231.534 177.728,225.180 177.816 L 221.492 177.867 221.582 176.758 C 221.632 176.148,221.912 175.384,222.205 175.060 C 222.662 174.556,223.426 172.834,223.665 171.773 C 223.705 171.598,223.901 171.309,224.102 171.132 C 224.409 170.862,225.389 167.448,225.232 167.201 C 225.203 167.157,225.469 166.832,225.822 166.480 C 226.175 166.127,226.464 165.416,226.464 164.900 C 226.464 164.375,226.807 163.555,227.245 163.034 C 227.674 162.524,228.130 161.683,228.256 161.165 C 228.383 160.648,229.173 158.901,230.010 157.283 C 230.848 155.665,231.637 153.861,231.764 153.274 C 231.891 152.686,232.339 151.557,232.758 150.764 C 233.177 149.972,233.520 149.130,233.520 148.894 C 233.520 148.657,233.953 147.477,234.483 146.271 C 235.012 145.065,235.445 143.840,235.445 143.550 C 235.445 143.259,235.819 142.530,236.276 141.931 C 236.733 141.332,237.187 140.223,237.286 139.467 C 237.385 138.710,237.799 137.690,238.207 137.200 C 238.614 136.710,239.042 135.806,239.158 135.192 C 239.273 134.577,239.497 133.994,239.656 133.896 C 240.062 133.645,240.751 131.913,241.049 130.393 C 241.188 129.687,241.374 129.311,241.463 129.558 C 241.552 129.804,242.030 128.794,242.525 127.312 C 244.008 122.877,244.406 121.894,245.096 120.961 C 245.459 120.471,245.898 119.433,246.073 118.656 C 246.247 117.878,246.686 116.926,247.048 116.541 C 247.410 116.156,247.744 115.434,247.791 114.937 C 247.907 113.721,248.422 112.493,249.029 111.989 C 249.303 111.762,249.626 110.902,249.747 110.078 C 249.867 109.254,250.264 108.157,250.629 107.639 C 251.170 106.869,251.291 106.208,251.291 104.016 L 251.291 101.335 249.756 99.905 C 248.911 99.118,247.908 98.399,247.526 98.307 C 247.145 98.215,204.867 98.179,153.576 98.228 L 60.319 98.316 59.430 99.205 C 58.084 100.550,57.872 111.715,59.167 113.011 C 59.403 113.246,59.741 114.376,59.919 115.521 C 60.219 117.442,61.889 121.047,63.636 123.541 C 64.688 125.043,68.749 129.270,69.140 129.270 C 69.364 129.270,70.151 129.776,70.890 130.393 C 71.629 131.011,72.401 131.422,72.605 131.308 C 72.839 131.177,72.829 131.258,72.576 131.530 C 71.952 132.204,76.768 134.072,80.072 134.438 C 81.547 134.602,107.518 134.691,139.938 134.645 C 196.876 134.563,197.195 134.567,196.754 135.196 C 196.511 135.544,196.311 136.069,196.311 136.363 C 196.311 136.657,196.059 137.208,195.750 137.586 L 195.188 138.275 145.148 138.259 C 91.930 138.241,92.479 138.225,91.029 139.770 C 90.314 140.532,90.297 140.711,90.297 147.368 L 90.297 154.185 91.179 155.458 C 91.670 156.166,92.061 157.164,92.061 157.708 C 92.061 159.681,93.112 161.698,95.622 164.541 C 96.330 165.343,97.231 166.504,97.624 167.121 C 98.017 167.739,98.779 168.460,99.318 168.725 C 99.857 168.990,100.718 169.539,101.231 169.945 C 103.786 171.966,104.706 172.574,105.210 172.574 C 105.513 172.574,106.148 172.934,106.623 173.373 C 107.553 174.236,108.819 174.687,109.364 174.350 C 109.551 174.234,109.703 174.277,109.703 174.443 C 109.703 175.923,109.981 175.936,145.309 176.043 C 178.954 176.145,179.325 176.160,178.693 177.341 C 178.340 178.000,178.169 178.007,161.027 178.097 L 143.717 178.188 142.668 179.236 L 141.620 180.285 141.620 186.133 C 141.620 191.805,141.643 192.012,142.389 193.005 C 142.812 193.569,143.182 194.507,143.211 195.090 C 143.241 195.674,143.291 196.619,143.324 197.192 C 143.364 197.882,143.774 198.665,144.538 199.511 C 145.173 200.214,146.147 201.624,146.703 202.644 C 149.241 207.301,158.384 213.953,162.247 213.953 C 162.928 213.953,163.563 214.031,163.658 214.125 C 163.881 214.349,162.369 218.133,161.795 218.787 C 161.551 219.064,161.205 220.067,161.025 221.016 C 160.845 221.965,160.411 223.047,160.060 223.420 C 159.710 223.794,159.423 224.347,159.423 224.650 C 159.423 224.954,159.080 225.883,158.660 226.715 C 158.241 227.547,157.794 228.733,157.666 229.350 C 157.539 229.968,157.088 231.076,156.665 231.813 C 156.241 232.550,155.894 233.586,155.894 234.114 C 155.894 234.672,155.557 235.476,155.090 236.031 C 154.633 236.574,154.147 237.718,153.964 238.680 C 153.788 239.611,153.429 240.609,153.167 240.899 C 152.649 241.471,151.661 244.427,151.987 244.427 C 152.097 244.427,151.873 244.647,151.488 244.917 C 151.088 245.197,150.695 245.919,150.571 246.601 C 150.452 247.258,150.013 248.385,149.596 249.106 C 149.179 249.827,148.837 250.657,148.837 250.950 C 148.837 251.244,148.579 251.742,148.264 252.057 C 147.944 252.377,147.509 253.618,147.280 254.864 C 147.036 256.190,146.610 257.374,146.231 257.779 C 145.880 258.154,145.393 259.215,145.150 260.137 C 144.907 261.059,144.493 262.051,144.231 262.342 C 143.968 262.633,143.578 263.593,143.364 264.475 C 143.150 265.357,142.707 266.376,142.379 266.739 C 141.840 267.337,141.017 270.394,141.315 270.692 C 141.382 270.760,141.101 271.080,140.689 271.404 C 140.233 271.763,139.862 272.488,139.738 273.263 C 139.626 273.962,139.316 274.752,139.049 275.019 C 138.781 275.287,138.424 276.238,138.254 277.134 C 138.084 278.029,137.581 279.298,137.136 279.953 C 136.689 280.611,136.327 281.601,136.327 282.167 C 136.327 282.792,136.013 283.563,135.521 284.149 C 135.078 284.676,134.594 285.753,134.447 286.542 C 134.299 287.331,133.859 288.425,133.469 288.973 C 133.079 289.521,132.733 290.367,132.699 290.855 C 132.666 291.342,132.318 292.095,131.926 292.528 C 131.535 292.962,131.121 293.938,131.007 294.697 C 130.893 295.457,130.550 296.401,130.244 296.796 C 129.939 297.191,129.583 297.945,129.454 298.472 C 129.326 298.999,128.582 300.895,127.802 302.687 C 125.480 308.019,125.855 312.458,128.741 313.811 C 129.421 314.130,130.278 314.671,130.646 315.014 C 131.015 315.357,131.758 315.646,132.298 315.657 C 145.037 315.910,153.750 315.655,154.437 315.009 C 154.836 314.634,155.694 314.181,156.343 314.002 C 156.993 313.822,158.044 313.323,158.679 312.892 C 159.314 312.461,160.034 312.109,160.280 312.109 C 162.173 312.109,170.917 301.650,171.587 298.585 C 171.767 297.762,172.279 296.551,172.725 295.894 C 173.171 295.236,173.536 294.313,173.536 293.843 C 173.536 293.372,173.890 292.509,174.322 291.923 C 174.753 291.338,175.198 290.444,175.309 289.936 C 175.421 289.429,175.609 289.014,175.727 289.014 C 175.846 289.014,176.208 288.111,176.534 287.009 C 176.859 285.906,177.472 284.268,177.897 283.368 C 178.321 282.468,178.669 281.518,178.669 281.257 C 178.669 280.996,179.024 280.080,179.459 279.221 C 179.894 278.363,180.342 277.219,180.456 276.681 C 180.570 276.142,180.930 275.410,181.256 275.054 C 181.582 274.698,182.057 273.517,182.310 272.430 C 182.564 271.344,183.058 270.147,183.408 269.772 C 183.758 269.396,184.123 268.600,184.220 268.003 C 184.317 267.406,184.694 266.512,185.058 266.017 C 185.422 265.521,185.848 264.425,186.005 263.581 C 186.161 262.737,186.510 261.798,186.779 261.496 C 187.049 261.194,187.431 260.339,187.629 259.597 C 187.826 258.856,188.195 258.042,188.448 257.789 C 188.701 257.536,189.051 256.440,189.226 255.353 C 189.438 254.039,189.818 253.051,190.362 252.406 C 190.811 251.871,191.179 251.040,191.179 250.559 C 191.179 250.078,191.524 249.215,191.947 248.643 C 192.369 248.070,192.811 246.960,192.929 246.176 C 193.046 245.392,193.474 244.353,193.880 243.867 C 194.511 243.111,195.272 240.338,195.075 239.511 C 195.040 239.366,195.144 239.328,195.306 239.428 C 195.612 239.617,196.631 237.753,196.633 237.000 C 196.634 236.762,196.921 236.098,197.271 235.523 C 197.621 234.949,198.002 233.893,198.116 233.177 C 198.231 232.461,198.679 231.354,199.112 230.716 C 199.544 230.078,199.981 229.040,200.081 228.411 C 200.181 227.781,200.601 226.818,201.014 226.272 C 201.763 225.282,202.497 222.514,202.122 222.092 C 202.013 221.970,202.095 221.968,202.304 222.087 C 202.789 222.365,203.689 221.095,203.689 220.131 C 203.689 219.726,204.130 218.567,204.670 217.556 L 205.650 215.718 223.042 215.557 L 240.433 215.397 241.351 214.675 C 242.066 214.112,242.683 213.953,244.159 213.953 C 245.200 213.953,246.588 213.719,247.244 213.433 C 247.900 213.147,249.336 212.670,250.436 212.372 C 251.536 212.075,252.768 211.552,253.173 211.209 C 253.578 210.866,254.261 210.546,254.690 210.497 C 255.119 210.448,255.764 210.141,256.123 209.815 C 256.482 209.489,257.318 208.971,257.979 208.664 C 258.641 208.357,259.182 207.992,259.182 207.853 C 259.182 207.713,259.940 207.167,260.866 206.638 C 261.792 206.109,263.194 205.012,263.980 204.201 C 264.767 203.390,265.605 202.727,265.844 202.727 C 266.082 202.727,266.191 202.587,266.085 202.417 C 265.980 202.246,266.368 201.793,266.949 201.410 C 267.569 201.000,269.125 199.006,270.730 196.563 C 272.229 194.281,273.627 192.270,273.837 192.095 C 274.046 191.919,274.314 191.317,274.433 190.756 C 274.551 190.195,274.912 189.447,275.234 189.094 C 275.977 188.280,276.565 186.748,276.322 186.260 C 276.219 186.054,276.362 186.166,276.640 186.509 C 277.136 187.121,277.145 187.120,277.145 186.448 C 277.145 186.071,277.281 185.680,277.447 185.577 C 277.614 185.474,277.848 184.737,277.967 183.938 C 278.087 183.140,278.373 182.299,278.602 182.069 C 278.831 181.840,279.175 181.072,279.366 180.363 C 279.557 179.654,279.994 178.717,280.336 178.282 C 280.679 177.846,281.135 176.781,281.350 175.914 C 281.566 175.048,282.079 173.892,282.491 173.346 C 282.903 172.800,283.240 172.124,283.240 171.844 C 283.240 171.563,284.028 169.804,284.992 167.933 C 285.966 166.040,286.784 164.003,286.836 163.340 C 286.887 162.685,287.145 161.905,287.410 161.606 C 287.674 161.307,288.376 159.936,288.969 158.559 C 289.561 157.181,290.536 155.084,291.134 153.898 C 291.732 152.712,292.221 151.367,292.221 150.910 C 292.221 150.452,292.582 149.604,293.023 149.026 C 293.464 148.448,293.825 147.747,293.825 147.468 C 293.825 147.190,294.194 146.523,294.645 145.987 C 295.096 145.451,295.548 144.466,295.649 143.797 C 295.750 143.129,296.139 142.077,296.513 141.460 C 296.887 140.842,297.435 139.615,297.729 138.733 C 298.855 135.367,299.336 134.266,300.057 133.409 C 300.467 132.922,300.902 131.972,301.025 131.298 C 301.147 130.624,301.612 129.539,302.058 128.888 C 302.503 128.237,302.773 127.551,302.658 127.364 C 302.543 127.178,302.574 127.025,302.729 127.025 C 303.175 127.025,304.411 124.611,304.411 123.738 C 304.411 123.302,304.743 122.455,305.148 121.857 C 305.554 121.259,306.086 120.048,306.330 119.166 C 306.574 118.284,307.023 116.985,307.328 116.279 C 307.632 115.573,307.931 114.274,307.991 113.392 C 308.074 112.163,308.287 111.626,308.901 111.095 L 309.703 110.401 309.703 99.868 C 309.703 94.074,309.589 88.890,309.449 88.347 C 309.235 87.513,309.372 87.104,310.332 85.709 C 310.956 84.800,311.468 83.921,311.468 83.755 C 311.468 83.589,312.129 82.683,312.938 81.742 C 313.747 80.802,314.622 79.509,314.882 78.869 C 315.398 77.600,320.510 72.494,321.264 72.494 C 321.518 72.494,322.519 71.776,323.488 70.897 C 324.458 70.019,325.650 69.203,326.138 69.084 C 326.626 68.965,327.354 68.613,327.756 68.302 C 328.158 67.990,329.096 67.639,329.841 67.520 C 330.586 67.401,331.714 66.969,332.349 66.559 C 333.251 65.976,334.160 65.765,336.519 65.592 C 338.946 65.414,339.760 65.219,340.688 64.593 C 341.905 63.772,342.473 63.811,343.775 64.808 C 344.278 65.193,345.452 65.420,347.785 65.583 C 350.374 65.763,351.225 65.944,351.745 66.426 C 352.408 67.042,355.814 67.869,356.342 67.542 C 356.497 67.447,356.807 67.590,357.031 67.860 C 358.887 70.097,366.483 71.587,368.682 70.146 C 370.432 68.999,370.747 61.432,369.158 58.685 C 368.704 57.900,368.253 56.630,368.154 55.863 C 368.056 55.095,367.693 54.157,367.347 53.778 C 367.002 53.398,366.625 52.561,366.511 51.917 C 366.396 51.273,366.000 50.363,365.631 49.893 C 365.261 49.423,364.827 48.449,364.664 47.727 C 364.502 47.005,364.014 45.992,363.580 45.476 C 363.138 44.951,362.791 44.128,362.791 43.607 C 362.791 43.095,361.997 41.135,361.026 39.251 C 360.056 37.368,359.262 35.650,359.262 35.435 C 359.262 35.029,355.498 30.196,353.650 28.228 C 353.070 27.610,352.506 26.804,352.395 26.435 C 352.081 25.386,346.303 19.958,344.521 19.040 C 343.666 18.599,343.449 18.435,339.909 15.568 C 338.694 14.584,337.394 13.793,336.992 13.793 C 336.593 13.793,336.010 13.510,335.697 13.164 C 335.383 12.817,334.603 12.367,333.963 12.163 C 333.323 11.958,332.410 11.429,331.935 10.986 C 331.353 10.443,330.675 10.168,329.850 10.143 C 329.179 10.121,328.357 9.859,328.024 9.559 C 327.691 9.259,326.970 8.916,326.420 8.798 C 325.871 8.679,324.703 8.220,323.825 7.777 C 322.664 7.192,321.577 6.940,319.831 6.853 C 317.912 6.757,317.197 6.571,316.263 5.923 L 315.094 5.113 253.835 5.042 C 220.143 5.004,192.299 5.022,191.958 5.083 M310.826 8.588 C 312.326 8.724,313.986 9.062,314.515 9.339 C 315.044 9.616,316.776 10.032,318.364 10.264 C 319.952 10.495,321.478 10.877,321.754 11.113 C 322.278 11.559,324.924 12.558,327.635 13.333 C 328.500 13.580,329.438 13.991,329.720 14.246 C 330.002 14.501,331.550 15.406,333.161 16.256 C 334.771 17.107,337.442 18.816,339.095 20.055 C 340.748 21.293,342.534 22.581,343.063 22.916 C 344.491 23.820,348.327 27.578,349.167 28.895 C 349.569 29.526,350.454 30.711,351.132 31.529 C 354.393 35.458,355.409 36.989,357.396 40.970 C 358.575 43.332,359.638 45.725,359.758 46.289 C 359.877 46.852,360.163 47.530,360.393 47.795 C 360.622 48.059,361.092 49.070,361.437 50.040 C 362.214 52.227,363.344 54.974,364.077 56.455 C 364.382 57.073,364.710 58.093,364.805 58.723 C 364.899 59.353,365.351 60.420,365.808 61.094 C 366.409 61.978,366.639 62.730,366.636 63.798 C 366.624 67.626,365.812 67.936,361.381 65.804 C 359.587 64.940,357.474 64.136,356.686 64.016 C 355.897 63.896,354.507 63.434,353.595 62.989 C 352.282 62.348,351.377 62.165,349.239 62.111 C 347.008 62.053,346.386 61.919,345.641 61.334 C 344.254 60.242,340.445 60.313,338.476 61.467 C 337.262 62.178,336.794 62.279,335.443 62.119 C 334.261 61.979,333.375 62.101,332.039 62.590 C 331.045 62.953,329.439 63.503,328.468 63.813 C 327.498 64.123,326.199 64.686,325.581 65.066 C 324.964 65.445,324.238 65.756,323.969 65.757 C 323.700 65.757,322.483 66.552,321.265 67.522 C 320.048 68.492,318.912 69.286,318.741 69.286 C 318.302 69.286,311.788 75.748,311.788 76.183 C 311.788 76.381,311.528 76.823,311.210 77.165 C 310.891 77.507,309.954 78.824,309.127 80.092 C 308.299 81.360,307.474 82.489,307.292 82.601 C 305.688 83.593,304.607 88.333,305.631 89.885 C 306.494 91.194,306.479 107.696,305.613 108.652 C 305.305 108.994,305.052 109.708,305.052 110.240 C 305.052 110.772,304.763 112.024,304.411 113.022 C 304.058 114.019,303.486 115.636,303.139 116.614 C 302.793 117.592,302.214 118.807,301.854 119.314 C 301.493 119.820,301.106 120.716,300.994 121.304 C 300.882 121.892,300.094 123.721,299.242 125.367 C 298.390 127.014,297.601 128.856,297.487 129.460 C 297.374 130.064,297.017 130.894,296.695 131.304 C 296.152 131.994,295.672 133.076,294.149 137.039 C 293.829 137.871,293.264 138.937,292.894 139.407 C 292.524 139.878,292.221 140.717,292.221 141.271 C 292.221 141.825,292.005 142.588,291.741 142.965 C 290.875 144.201,289.074 148.013,288.858 149.067 C 288.742 149.635,288.302 150.606,287.882 151.226 C 287.461 151.845,286.953 152.964,286.752 153.711 C 286.550 154.458,285.763 156.260,285.001 157.716 C 284.240 159.172,283.518 160.837,283.398 161.416 C 283.278 161.996,282.848 162.975,282.443 163.593 C 282.038 164.210,281.471 165.446,281.184 166.340 C 280.897 167.233,280.093 169.076,279.398 170.435 C 278.703 171.794,278.040 173.410,277.924 174.026 C 277.809 174.642,277.468 175.469,277.167 175.865 C 276.867 176.260,276.426 177.089,276.189 177.706 C 275.951 178.324,275.584 179.046,275.373 179.310 C 275.163 179.575,274.815 180.513,274.601 181.395 C 274.387 182.277,273.952 183.288,273.633 183.641 C 273.315 183.994,272.885 184.812,272.677 185.460 C 272.470 186.107,272.099 186.804,271.852 187.009 C 271.606 187.213,271.230 187.911,271.018 188.558 C 270.805 189.206,270.000 190.601,269.229 191.660 C 268.457 192.719,267.230 194.491,266.502 195.599 C 265.175 197.619,259.912 202.786,258.264 203.689 C 256.654 204.571,255.260 205.446,254.410 206.111 C 252.105 207.913,245.477 210.376,241.996 210.725 C 240.734 210.852,239.385 211.192,238.957 211.491 C 238.262 211.978,236.543 212.029,220.698 212.034 C 201.586 212.039,202.727 211.923,201.774 213.960 C 201.404 214.750,200.891 215.758,200.635 216.199 C 200.379 216.640,200.168 217.370,200.165 217.821 C 200.163 218.271,199.810 219.116,199.381 219.696 C 198.953 220.277,198.504 221.332,198.385 222.040 C 198.265 222.749,197.822 223.838,197.400 224.460 C 196.977 225.082,196.632 225.970,196.632 226.434 C 196.632 226.898,196.261 227.823,195.807 228.491 C 195.353 229.158,194.898 230.238,194.796 230.891 C 194.693 231.543,194.291 232.461,193.902 232.929 C 193.513 233.398,193.098 234.386,192.980 235.124 C 192.862 235.862,192.409 236.992,191.972 237.634 C 191.536 238.276,191.179 239.181,191.179 239.645 C 191.179 240.108,190.805 241.039,190.347 241.713 C 189.890 242.387,189.433 243.454,189.331 244.083 C 189.230 244.713,188.812 245.950,188.402 246.832 C 187.992 247.715,187.655 248.669,187.653 248.954 C 187.652 249.239,187.385 249.817,187.060 250.237 C 186.735 250.658,186.294 251.712,186.080 252.578 C 185.865 253.445,185.426 254.490,185.103 254.901 C 184.780 255.312,184.417 256.191,184.296 256.854 C 184.176 257.517,183.742 258.565,183.332 259.182 C 182.923 259.800,182.492 260.850,182.376 261.518 C 182.260 262.185,181.811 263.251,181.379 263.888 C 180.947 264.525,180.593 265.425,180.593 265.889 C 180.593 266.352,180.222 267.278,179.769 267.945 C 179.315 268.613,178.861 269.693,178.759 270.345 C 178.658 270.998,178.289 271.940,177.941 272.439 C 177.592 272.938,177.177 273.922,177.019 274.626 C 176.861 275.330,176.441 276.298,176.087 276.777 C 175.733 277.256,175.352 278.212,175.240 278.902 C 175.128 279.593,174.699 280.654,174.286 281.262 C 173.874 281.870,173.536 282.603,173.536 282.892 C 173.536 283.180,173.108 284.279,172.584 285.333 C 172.061 286.387,171.627 287.436,171.622 287.663 C 171.616 287.891,171.340 288.612,171.009 289.267 C 170.677 289.922,170.304 291.066,170.180 291.811 C 170.056 292.556,169.657 293.543,169.293 294.006 C 168.929 294.469,168.510 295.494,168.362 296.284 C 168.191 297.202,167.583 298.393,166.677 299.584 C 165.897 300.609,165.113 301.721,164.934 302.056 C 164.107 303.602,158.546 308.582,156.536 309.577 C 152.126 311.759,151.521 312.020,150.120 312.347 C 146.782 313.125,135.051 312.665,133.031 311.677 C 129.590 309.994,129.358 309.160,131.155 304.931 C 131.838 303.321,132.506 301.654,132.638 301.225 C 132.771 300.796,133.149 300.002,133.479 299.461 C 133.809 298.919,134.080 298.256,134.081 297.987 C 134.081 297.718,134.510 296.635,135.034 295.581 C 135.558 294.527,135.991 293.443,135.996 293.171 C 136.002 292.900,136.306 292.106,136.673 291.407 C 137.040 290.708,137.560 289.418,137.830 288.540 C 138.099 287.662,138.577 286.617,138.890 286.218 C 139.204 285.819,139.556 284.858,139.672 284.082 C 139.789 283.307,140.157 282.425,140.492 282.122 C 140.826 281.820,141.257 280.835,141.451 279.933 C 141.644 279.032,142.023 278.050,142.293 277.752 C 142.563 277.454,142.982 276.459,143.224 275.541 C 143.466 274.624,143.907 273.604,144.205 273.275 C 144.502 272.946,144.865 272.040,145.010 271.262 C 145.156 270.483,145.643 269.303,146.094 268.639 C 146.544 267.976,146.913 267.113,146.913 266.723 C 146.913 266.333,147.257 265.366,147.677 264.575 C 148.098 263.784,148.549 262.650,148.680 262.054 C 148.811 261.459,149.183 260.605,149.508 260.157 C 149.832 259.709,150.276 258.621,150.493 257.739 C 150.711 256.856,151.076 255.908,151.304 255.631 C 151.532 255.354,152.008 254.287,152.361 253.260 C 152.715 252.233,153.130 251.233,153.284 251.037 C 153.439 250.842,153.738 250.104,153.949 249.399 C 154.160 248.693,154.605 247.603,154.938 246.977 C 155.763 245.422,157.498 240.666,157.498 239.957 C 157.498 239.640,157.808 238.987,158.187 238.505 C 158.565 238.024,158.991 237.012,159.132 236.256 C 159.273 235.500,159.757 234.339,160.207 233.675 C 160.658 233.012,161.026 232.076,161.026 231.596 C 161.026 231.116,161.372 230.213,161.795 229.590 C 162.218 228.967,162.665 227.972,162.789 227.380 C 162.913 226.788,163.361 225.700,163.784 224.963 C 164.208 224.226,164.555 223.300,164.555 222.906 C 164.555 222.512,164.896 221.599,165.314 220.878 C 165.731 220.157,166.247 218.990,166.461 218.284 C 166.674 217.578,167.199 216.332,167.627 215.514 C 169.016 212.857,167.665 210.752,164.562 210.740 C 163.535 210.736,162.643 210.457,161.508 209.783 C 160.626 209.260,159.695 208.830,159.440 208.827 C 157.570 208.805,148.837 200.085,148.837 198.241 C 148.837 198.074,148.432 197.463,147.937 196.884 C 147.319 196.159,146.854 195.029,146.451 193.264 C 146.129 191.852,145.667 190.413,145.426 190.065 C 144.973 189.411,144.794 184.360,145.187 183.334 C 145.738 181.899,146.310 181.854,163.449 181.888 C 181.733 181.925,181.115 182.005,182.311 179.455 C 182.638 178.758,183.129 177.935,183.402 177.627 C 183.729 177.258,183.910 176.380,183.930 175.061 L 183.962 173.055 151.979 173.005 C 128.609 172.968,119.691 172.853,118.863 172.580 C 118.189 172.357,117.048 172.290,116.042 172.414 C 114.360 172.620,112.346 172.006,109.703 170.480 C 109.262 170.225,108.258 169.706,107.471 169.326 C 105.333 168.294,101.273 165.082,100.262 163.623 C 99.773 162.917,99.059 162.134,98.675 161.883 C 97.468 161.092,95.528 157.508,95.346 155.734 C 95.256 154.852,94.930 153.769,94.623 153.328 C 93.418 151.600,92.963 144.276,93.981 142.982 L 94.674 142.101 145.911 142.101 L 197.148 142.101 198.165 141.051 C 198.725 140.474,199.457 139.204,199.792 138.229 C 200.128 137.254,200.709 135.856,201.083 135.122 C 201.921 133.480,201.988 131.670,201.222 131.376 C 200.924 131.262,173.823 131.177,140.998 131.188 C 107.509 131.200,80.822 131.085,80.192 130.926 C 78.376 130.468,75.339 128.860,73.397 127.328 C 72.403 126.544,71.072 125.541,70.440 125.100 C 67.567 123.097,63.233 115.238,63.188 111.949 C 63.182 111.508,62.895 110.786,62.550 110.345 C 61.851 109.451,61.622 104.403,62.211 102.855 C 62.810 101.279,60.055 101.321,155.636 101.426 L 245.353 101.524 246.494 102.629 C 247.802 103.897,247.888 104.461,246.994 105.926 C 246.642 106.504,246.353 107.232,246.352 107.544 C 246.352 107.856,245.918 108.923,245.389 109.915 C 244.860 110.907,244.427 111.997,244.427 112.338 C 244.427 112.678,244.083 113.560,243.664 114.297 C 243.244 115.034,242.814 116.108,242.709 116.683 C 242.603 117.258,242.227 118.124,241.873 118.608 C 241.234 119.480,240.395 121.475,235.768 133.119 C 235.383 134.090,234.958 135.028,234.824 135.204 C 234.690 135.381,234.340 136.279,234.047 137.200 C 233.753 138.122,233.166 139.387,232.742 140.011 C 232.318 140.636,231.876 141.714,231.759 142.408 C 231.641 143.101,231.358 143.823,231.130 144.013 C 230.901 144.203,230.528 145.042,230.302 145.876 C 230.076 146.711,229.567 147.971,229.171 148.677 C 228.775 149.383,228.359 150.402,228.247 150.942 C 228.067 151.810,227.015 154.045,225.390 157.017 C 225.100 157.546,224.863 158.357,224.862 158.818 C 224.861 159.279,224.557 160.042,224.186 160.513 C 223.816 160.984,223.320 162.101,223.084 162.994 C 222.848 163.888,222.430 164.869,222.154 165.173 C 221.879 165.477,221.526 166.406,221.371 167.237 C 221.216 168.068,220.865 168.995,220.591 169.298 C 220.318 169.600,219.807 170.517,219.456 171.336 C 219.105 172.155,218.662 172.921,218.471 173.039 C 218.280 173.157,218.123 173.642,218.123 174.117 C 218.122 174.592,217.617 175.982,217.000 177.207 C 215.776 179.637,215.643 180.469,216.328 181.407 C 217.002 182.329,228.563 182.192,231.357 181.230 C 232.372 180.880,233.701 180.593,234.312 180.593 C 236.950 180.593,240.924 178.237,242.074 175.990 C 242.358 175.435,242.986 174.526,243.469 173.971 C 243.953 173.416,244.597 172.262,244.901 171.405 C 245.205 170.548,245.938 168.837,246.531 167.602 C 247.124 166.367,247.701 164.965,247.814 164.485 C 247.927 164.006,248.727 162.233,249.591 160.546 C 250.456 158.858,251.163 157.214,251.163 156.891 C 251.163 156.568,251.517 155.782,251.951 155.144 C 252.384 154.505,252.897 153.393,253.091 152.673 C 253.285 151.952,254.158 149.994,255.030 148.322 C 255.902 146.649,256.616 144.863,256.616 144.351 C 256.616 143.840,256.764 143.330,256.945 143.218 C 257.356 142.965,259.701 138.064,259.947 136.945 C 260.046 136.491,260.478 135.605,260.905 134.975 C 261.332 134.345,261.788 133.345,261.918 132.753 C 262.047 132.161,262.776 130.449,263.537 128.949 C 264.299 127.450,265.020 125.790,265.139 125.261 C 265.259 124.731,265.755 123.577,266.241 122.694 C 266.727 121.812,267.306 120.513,267.528 119.808 C 267.749 119.102,268.560 117.332,269.330 115.876 C 270.100 114.419,270.730 112.903,270.731 112.508 C 270.732 112.112,271.049 111.283,271.437 110.666 C 272.140 109.545,273.254 107.098,274.108 104.800 C 274.356 104.132,274.780 103.270,275.050 102.884 C 276.621 100.641,274.677 96.281,271.512 94.948 L 269.607 94.146 164.074 93.986 C 77.943 93.855,58.365 93.748,57.585 93.404 C 56.965 93.131,56.096 93.057,55.110 93.192 C 53.876 93.362,53.272 93.252,51.896 92.609 C 50.963 92.173,49.840 91.711,49.399 91.581 C 48.957 91.452,48.091 91.086,47.474 90.769 C 46.856 90.452,45.702 89.895,44.908 89.531 C 39.952 87.262,33.039 77.135,33.039 72.145 C 33.039 71.617,32.751 70.619,32.398 69.928 C 31.743 68.644,31.497 65.059,32.008 64.254 C 32.676 63.205,33.910 63.192,132.289 63.192 C 225.463 63.192,230.558 63.163,231.003 62.630 C 231.780 61.701,233.458 57.980,233.665 56.728 C 233.771 56.084,234.063 55.388,234.313 55.180 C 234.564 54.972,234.930 54.022,235.128 53.068 C 235.326 52.115,235.639 51.241,235.823 51.127 C 236.007 51.013,236.498 50.181,236.913 49.277 C 237.328 48.374,237.879 47.273,238.139 46.832 C 238.399 46.391,238.819 45.597,239.073 45.068 C 240.229 42.661,240.745 41.789,241.592 40.807 C 242.559 39.687,242.760 38.691,242.101 38.280 C 241.881 38.142,235.598 38.076,228.141 38.133 C 216.756 38.220,214.466 38.162,213.866 37.774 C 213.473 37.520,212.285 37.022,211.227 36.667 C 207.109 35.286,199.472 29.281,197.844 26.143 C 194.893 20.453,194.150 17.966,194.544 15.096 C 194.727 13.767,194.646 13.483,193.765 12.375 C 192.624 10.939,192.549 10.304,193.396 9.258 L 194.009 8.500 248.648 8.323 C 304.117 8.143,306.004 8.151,310.826 8.588 M293.184 38.502 C 292.037 38.826,290.666 39.245,290.136 39.435 C 289.607 39.625,288.051 40.140,286.679 40.580 C 284.441 41.298,282.381 42.422,280.032 44.206 C 279.591 44.541,278.797 45.039,278.268 45.312 C 276.524 46.212,272.575 50.699,269.447 55.337 C 268.653 56.514,267.457 58.221,266.789 59.131 C 265.838 60.426,265.594 61.030,265.666 61.909 L 265.758 63.031 269.286 63.235 C 275.256 63.580,277.559 63.899,278.580 64.522 C 280.427 65.648,281.891 64.687,284.160 60.856 C 284.754 59.853,285.945 58.316,286.806 57.441 C 287.667 56.566,288.372 55.672,288.372 55.455 C 288.372 54.736,297.762 45.533,299.298 44.745 C 300.103 44.333,300.951 43.768,301.182 43.489 C 301.413 43.211,301.726 42.983,301.877 42.983 C 302.617 42.983,305.694 40.666,305.694 40.109 C 305.694 38.899,304.814 38.452,302.852 38.664 C 301.586 38.802,300.621 38.709,299.639 38.356 C 297.852 37.713,295.820 37.759,293.184 38.502 M293.102 44.771 C 291.560 46.258,290.146 47.474,289.958 47.474 C 289.771 47.474,289.687 47.587,289.772 47.725 C 289.858 47.863,288.986 48.837,287.836 49.890 C 285.732 51.815,284.674 53.292,285.097 53.715 C 285.222 53.840,285.169 53.895,284.978 53.836 C 284.511 53.692,281.988 56.379,281.466 57.578 C 281.236 58.107,280.619 58.949,280.095 59.447 L 279.144 60.354 275.517 60.150 C 273.522 60.038,271.782 59.879,271.649 59.797 C 271.300 59.581,273.228 56.588,274.820 54.876 C 275.570 54.069,276.136 53.268,276.078 53.095 C 275.906 52.577,279.439 49.112,280.827 48.437 C 281.537 48.092,282.499 47.454,282.965 47.019 C 283.431 46.584,283.894 46.310,283.994 46.410 C 284.093 46.510,284.625 46.213,285.175 45.750 C 285.726 45.287,286.353 44.908,286.570 44.908 C 286.787 44.908,287.454 44.547,288.051 44.106 C 288.699 43.628,289.571 43.304,290.209 43.304 C 290.798 43.304,291.816 43.070,292.472 42.785 C 293.863 42.179,295.521 41.750,295.747 41.937 C 295.833 42.009,294.643 43.284,293.102 44.771 " stroke="none" fill="#b0b6bc" fill-rule="evenodd"></path><path id="path1" d="M222.399 5.052 C 238.247 5.098,264.085 5.098,279.817 5.052 C 295.549 5.006,282.582 4.968,251.002 4.968 C 219.423 4.968,206.551 5.006,222.399 5.052 M248.648 8.323 L 194.009 8.500 193.396 9.258 C 192.549 10.304,192.624 10.939,193.765 12.375 C 194.646 13.483,194.727 13.767,194.544 15.096 C 194.150 17.966,194.893 20.453,197.844 26.143 C 199.472 29.281,207.109 35.286,211.227 36.667 C 212.285 37.022,213.473 37.520,213.866 37.774 C 214.466 38.162,216.756 38.220,228.141 38.133 C 235.598 38.076,241.881 38.142,242.101 38.280 C 242.760 38.691,242.559 39.687,241.592 40.807 C 240.745 41.789,240.229 42.661,239.073 45.068 C 238.819 45.597,238.399 46.391,238.139 46.832 C 237.879 47.273,237.328 48.374,236.913 49.277 C 236.498 50.181,236.007 51.013,235.823 51.127 C 235.639 51.241,235.326 52.115,235.128 53.068 C 234.930 54.022,234.564 54.972,234.313 55.180 C 234.063 55.388,233.771 56.084,233.665 56.728 C 233.458 57.980,231.780 61.701,231.003 62.630 C 230.558 63.163,225.463 63.192,132.289 63.192 C 33.910 63.192,32.676 63.205,32.008 64.254 C 31.497 65.059,31.743 68.644,32.398 69.928 C 32.751 70.619,33.039 71.617,33.039 72.145 C 33.039 77.135,39.952 87.262,44.908 89.531 C 45.702 89.895,46.856 90.452,47.474 90.769 C 48.091 91.086,48.957 91.452,49.399 91.581 C 49.840 91.711,50.963 92.173,51.896 92.609 C 53.272 93.252,53.876 93.362,55.110 93.192 C 56.096 93.057,56.965 93.131,57.585 93.404 C 58.365 93.748,77.943 93.855,164.074 93.986 L 269.607 94.146 271.512 94.948 C 274.677 96.281,276.621 100.641,275.050 102.884 C 274.780 103.270,274.356 104.132,274.108 104.800 C 273.254 107.098,272.140 109.545,271.437 110.666 C 271.049 111.283,270.732 112.112,270.731 112.508 C 270.730 112.903,270.100 114.419,269.330 115.876 C 268.560 117.332,267.749 119.102,267.528 119.808 C 267.306 120.513,266.727 121.812,266.241 122.694 C 265.755 123.577,265.259 124.731,265.139 125.261 C 265.020 125.790,264.299 127.450,263.537 128.949 C 262.776 130.449,262.047 132.161,261.918 132.753 C 261.788 133.345,261.332 134.345,260.905 134.975 C 260.478 135.605,260.046 136.491,259.947 136.945 C 259.701 138.064,257.356 142.965,256.945 143.218 C 256.764 143.330,256.616 143.840,256.616 144.351 C 256.616 144.863,255.902 146.649,255.030 148.322 C 254.158 149.994,253.285 151.952,253.091 152.673 C 252.897 153.393,252.384 154.505,251.951 155.144 C 251.517 155.782,251.163 156.568,251.163 156.891 C 251.163 157.214,250.456 158.858,249.591 160.546 C 248.727 162.233,247.927 164.006,247.814 164.485 C 247.701 164.965,247.124 166.367,246.531 167.602 C 245.938 168.837,245.205 170.548,244.901 171.405 C 244.597 172.262,243.953 173.416,243.469 173.971 C 242.986 174.526,242.358 175.435,242.074 175.990 C 240.924 178.237,236.950 180.593,234.312 180.593 C 233.701 180.593,232.372 180.880,231.357 181.230 C 228.563 182.192,217.002 182.329,216.328 181.407 C 215.643 180.469,215.776 179.637,217.000 177.207 C 217.617 175.982,218.122 174.592,218.123 174.117 C 218.123 173.642,218.280 173.157,218.471 173.039 C 218.662 172.921,219.105 172.155,219.456 171.336 C 219.807 170.517,220.318 169.600,220.591 169.298 C 220.865 168.995,221.216 168.068,221.371 167.237 C 221.526 166.406,221.879 165.477,222.154 165.173 C 222.430 164.869,222.848 163.888,223.084 162.994 C 223.320 162.101,223.816 160.984,224.186 160.513 C 224.557 160.042,224.861 159.279,224.862 158.818 C 224.863 158.357,225.100 157.546,225.390 157.017 C 227.015 154.045,228.067 151.810,228.247 150.942 C 228.359 150.402,228.775 149.383,229.171 148.677 C 229.567 147.971,230.076 146.711,230.302 145.876 C 230.528 145.042,230.901 144.203,231.130 144.013 C 231.358 143.823,231.641 143.101,231.759 142.408 C 231.876 141.714,232.318 140.636,232.742 140.011 C 233.166 139.387,233.753 138.122,234.047 137.200 C 234.340 136.279,234.690 135.381,234.824 135.204 C 234.958 135.028,235.383 134.090,235.768 133.119 C 240.395 121.475,241.234 119.480,241.873 118.608 C 242.227 118.124,242.603 117.258,242.709 116.683 C 242.814 116.108,243.244 115.034,243.664 114.297 C 244.083 113.560,244.427 112.678,244.427 112.338 C 244.427 111.997,244.860 110.907,245.389 109.915 C 245.918 108.923,246.352 107.856,246.352 107.544 C 246.353 107.232,246.642 106.504,246.994 105.926 C 247.888 104.461,247.802 103.897,246.494 102.629 L 245.353 101.524 155.636 101.426 C 60.055 101.321,62.810 101.279,62.211 102.855 C 61.622 104.403,61.851 109.451,62.550 110.345 C 62.895 110.786,63.182 111.508,63.188 111.949 C 63.233 115.238,67.567 123.097,70.440 125.100 C 71.072 125.541,72.403 126.544,73.397 127.328 C 75.339 128.860,78.376 130.468,80.192 130.926 C 80.822 131.085,107.509 131.200,140.998 131.188 C 173.823 131.177,200.924 131.262,201.222 131.376 C 201.988 131.670,201.921 133.480,201.083 135.122 C 200.709 135.856,200.128 137.254,199.792 138.229 C 199.457 139.204,198.725 140.474,198.165 141.051 L 197.148 142.101 145.911 142.101 L 94.674 142.101 93.981 142.982 C 92.963 144.276,93.418 151.600,94.623 153.328 C 94.930 153.769,95.256 154.852,95.346 155.734 C 95.528 157.508,97.468 161.092,98.675 161.883 C 99.059 162.134,99.773 162.917,100.262 163.623 C 101.273 165.082,105.333 168.294,107.471 169.326 C 108.258 169.706,109.262 170.225,109.703 170.480 C 112.346 172.006,114.360 172.620,116.042 172.414 C 117.048 172.290,118.189 172.357,118.863 172.580 C 119.691 172.853,128.609 172.968,151.979 173.005 L 183.962 173.055 183.930 175.061 C 183.910 176.380,183.729 177.258,183.402 177.627 C 183.129 177.935,182.638 178.758,182.311 179.455 C 181.115 182.005,181.733 181.925,163.449 181.888 C 146.310 181.854,145.738 181.899,145.187 183.334 C 144.794 184.360,144.973 189.411,145.426 190.065 C 145.667 190.413,146.129 191.852,146.451 193.264 C 146.854 195.029,147.319 196.159,147.937 196.884 C 148.432 197.463,148.837 198.074,148.837 198.241 C 148.837 200.085,157.570 208.805,159.440 208.827 C 159.695 208.830,160.626 209.260,161.508 209.783 C 162.643 210.457,163.535 210.736,164.562 210.740 C 167.665 210.752,169.016 212.857,167.627 215.514 C 167.199 216.332,166.674 217.578,166.461 218.284 C 166.247 218.990,165.731 220.157,165.314 220.878 C 164.896 221.599,164.555 222.512,164.555 222.906 C 164.555 223.300,164.208 224.226,163.784 224.963 C 163.361 225.700,162.913 226.788,162.789 227.380 C 162.665 227.972,162.218 228.967,161.795 229.590 C 161.372 230.213,161.026 231.116,161.026 231.596 C 161.026 232.076,160.658 233.012,160.207 233.675 C 159.757 234.339,159.273 235.500,159.132 236.256 C 158.991 237.012,158.565 238.024,158.187 238.505 C 157.808 238.987,157.498 239.640,157.498 239.957 C 157.498 240.666,155.763 245.422,154.938 246.977 C 154.605 247.603,154.160 248.693,153.949 249.399 C 153.738 250.104,153.439 250.842,153.284 251.037 C 153.130 251.233,152.715 252.233,152.361 253.260 C 152.008 254.287,151.532 255.354,151.304 255.631 C 151.076 255.908,150.711 256.856,150.493 257.739 C 150.276 258.621,149.832 259.709,149.508 260.157 C 149.183 260.605,148.811 261.459,148.680 262.054 C 148.549 262.650,148.098 263.784,147.677 264.575 C 147.257 265.366,146.913 266.333,146.913 266.723 C 146.913 267.113,146.544 267.976,146.094 268.639 C 145.643 269.303,145.156 270.483,145.010 271.262 C 144.865 272.040,144.502 272.946,144.205 273.275 C 143.907 273.604,143.466 274.624,143.224 275.541 C 142.982 276.459,142.563 277.454,142.293 277.752 C 142.023 278.050,141.644 279.032,141.451 279.933 C 141.257 280.835,140.826 281.820,140.492 282.122 C 140.157 282.425,139.789 283.307,139.672 284.082 C 139.556 284.858,139.204 285.819,138.890 286.218 C 138.577 286.617,138.099 287.662,137.830 288.540 C 137.560 289.418,137.040 290.708,136.673 291.407 C 136.306 292.106,136.002 292.900,135.996 293.171 C 135.991 293.443,135.558 294.527,135.034 295.581 C 134.510 296.635,134.081 297.718,134.081 297.987 C 134.080 298.256,133.809 298.919,133.479 299.461 C 133.149 300.002,132.771 300.796,132.638 301.225 C 132.506 301.654,131.838 303.321,131.155 304.931 C 129.358 309.160,129.590 309.994,133.031 311.677 C 135.051 312.665,146.782 313.125,150.120 312.347 C 151.521 312.020,152.126 311.759,156.536 309.577 C 158.546 308.582,164.107 303.602,164.934 302.056 C 165.113 301.721,165.897 300.609,166.677 299.584 C 167.583 298.393,168.191 297.202,168.362 296.284 C 168.510 295.494,168.929 294.469,169.293 294.006 C 169.657 293.543,170.056 292.556,170.180 291.811 C 170.304 291.066,170.677 289.922,171.009 289.267 C 171.340 288.612,171.616 287.891,171.622 287.663 C 171.627 287.436,172.061 286.387,172.584 285.333 C 173.108 284.279,173.536 283.180,173.536 282.892 C 173.536 282.603,173.874 281.870,174.286 281.262 C 174.699 280.654,175.128 279.593,175.240 278.902 C 175.352 278.212,175.733 277.256,176.087 276.777 C 176.441 276.298,176.861 275.330,177.019 274.626 C 177.177 273.922,177.592 272.938,177.941 272.439 C 178.289 271.940,178.658 270.998,178.759 270.345 C 178.861 269.693,179.315 268.613,179.769 267.945 C 180.222 267.278,180.593 266.352,180.593 265.889 C 180.593 265.425,180.947 264.525,181.379 263.888 C 181.811 263.251,182.260 262.185,182.376 261.518 C 182.492 260.850,182.923 259.800,183.332 259.182 C 183.742 258.565,184.176 257.517,184.296 256.854 C 184.417 256.191,184.780 255.312,185.103 254.901 C 185.426 254.490,185.865 253.445,186.080 252.578 C 186.294 251.712,186.735 250.658,187.060 250.237 C 187.385 249.817,187.652 249.239,187.653 248.954 C 187.655 248.669,187.992 247.715,188.402 246.832 C 188.812 245.950,189.230 244.713,189.331 244.083 C 189.433 243.454,189.890 242.387,190.347 241.713 C 190.805 241.039,191.179 240.108,191.179 239.645 C 191.179 239.181,191.536 238.276,191.972 237.634 C 192.409 236.992,192.862 235.862,192.980 235.124 C 193.098 234.386,193.513 233.398,193.902 232.929 C 194.291 232.461,194.693 231.543,194.796 230.891 C 194.898 230.238,195.353 229.158,195.807 228.491 C 196.261 227.823,196.632 226.898,196.632 226.434 C 196.632 225.970,196.977 225.082,197.400 224.460 C 197.822 223.838,198.265 222.749,198.385 222.040 C 198.504 221.332,198.953 220.277,199.381 219.696 C 199.810 219.116,200.163 218.271,200.165 217.821 C 200.168 217.370,200.379 216.640,200.635 216.199 C 200.891 215.758,201.404 214.750,201.774 213.960 C 202.727 211.923,201.586 212.039,220.698 212.034 C 236.543 212.029,238.262 211.978,238.957 211.491 C 239.385 211.192,240.734 210.852,241.996 210.725 C 245.477 210.376,252.105 207.913,254.410 206.111 C 255.260 205.446,256.654 204.571,258.264 203.689 C 259.912 202.786,265.175 197.619,266.502 195.599 C 267.230 194.491,268.457 192.719,269.229 191.660 C 270.000 190.601,270.805 189.206,271.018 188.558 C 271.230 187.911,271.606 187.213,271.852 187.009 C 272.099 186.804,272.470 186.107,272.677 185.460 C 272.885 184.812,273.315 183.994,273.633 183.641 C 273.952 183.288,274.387 182.277,274.601 181.395 C 274.815 180.513,275.163 179.575,275.373 179.310 C 275.584 179.046,275.951 178.324,276.189 177.706 C 276.426 177.089,276.867 176.260,277.167 175.865 C 277.468 175.469,277.809 174.642,277.924 174.026 C 278.040 173.410,278.703 171.794,279.398 170.435 C 280.093 169.076,280.897 167.233,281.184 166.340 C 281.471 165.446,282.038 164.210,282.443 163.593 C 282.848 162.975,283.278 161.996,283.398 161.416 C 283.518 160.837,284.240 159.172,285.001 157.716 C 285.763 156.260,286.550 154.458,286.752 153.711 C 286.953 152.964,287.461 151.845,287.882 151.226 C 288.302 150.606,288.742 149.635,288.858 149.067 C 289.074 148.013,290.875 144.201,291.741 142.965 C 292.005 142.588,292.221 141.825,292.221 141.271 C 292.221 140.717,292.524 139.878,292.894 139.407 C 293.264 138.937,293.829 137.871,294.149 137.039 C 295.672 133.076,296.152 131.994,296.695 131.304 C 297.017 130.894,297.374 130.064,297.487 129.460 C 297.601 128.856,298.390 127.014,299.242 125.367 C 300.094 123.721,300.882 121.892,300.994 121.304 C 301.106 120.716,301.493 119.820,301.854 119.314 C 302.214 118.807,302.793 117.592,303.139 116.614 C 303.486 115.636,304.058 114.019,304.411 113.022 C 304.763 112.024,305.052 110.772,305.052 110.240 C 305.052 109.708,305.305 108.994,305.613 108.652 C 306.479 107.696,306.494 91.194,305.631 89.885 C 304.607 88.333,305.688 83.593,307.292 82.601 C 307.474 82.489,308.299 81.360,309.127 80.092 C 309.954 78.824,310.891 77.507,311.210 77.165 C 311.528 76.823,311.788 76.381,311.788 76.183 C 311.788 75.748,318.302 69.286,318.741 69.286 C 318.912 69.286,320.048 68.492,321.265 67.522 C 322.483 66.552,323.700 65.757,323.969 65.757 C 324.238 65.756,324.964 65.445,325.581 65.066 C 326.199 64.686,327.498 64.123,328.468 63.813 C 329.439 63.503,331.045 62.953,332.039 62.590 C 333.375 62.101,334.261 61.979,335.443 62.119 C 336.794 62.279,337.262 62.178,338.476 61.467 C 340.445 60.313,344.254 60.242,345.641 61.334 C 346.386 61.919,347.008 62.053,349.239 62.111 C 351.377 62.165,352.282 62.348,353.595 62.989 C 354.507 63.434,355.897 63.896,356.686 64.016 C 357.474 64.136,359.587 64.940,361.381 65.804 C 365.812 67.936,366.624 67.626,366.636 63.798 C 366.639 62.730,366.409 61.978,365.808 61.094 C 365.351 60.420,364.899 59.353,364.805 58.723 C 364.710 58.093,364.382 57.073,364.077 56.455 C 363.344 54.974,362.214 52.227,361.437 50.040 C 361.092 49.070,360.622 48.059,360.393 47.795 C 360.163 47.530,359.877 46.852,359.758 46.289 C 359.638 45.725,358.575 43.332,357.396 40.970 C 355.409 36.989,354.393 35.458,351.132 31.529 C 350.454 30.711,349.569 29.526,349.167 28.895 C 348.327 27.578,344.491 23.820,343.063 22.916 C 342.534 22.581,340.748 21.293,339.095 20.055 C 337.442 18.816,334.771 17.107,333.161 16.256 C 331.550 15.406,330.002 14.501,329.720 14.246 C 329.438 13.991,328.500 13.580,327.635 13.333 C 324.924 12.558,322.278 11.559,321.754 11.113 C 321.478 10.877,319.952 10.495,318.364 10.264 C 316.776 10.032,315.044 9.616,314.515 9.339 C 313.556 8.838,310.270 8.429,305.694 8.244 C 304.370 8.190,278.700 8.226,248.648 8.323 M305.694 10.730 C 326.119 12.865,345.364 24.548,353.356 39.666 C 353.901 40.696,354.864 42.478,355.495 43.625 C 356.126 44.771,357.674 48.308,358.935 51.484 C 360.196 54.659,361.491 57.907,361.814 58.701 C 363.515 62.889,363.096 63.166,357.825 61.341 C 335.312 53.547,314.503 62.052,303.749 83.441 C 302.254 86.413,302.218 87.087,303.335 91.099 C 305.507 98.893,304.133 107.293,298.639 119.808 C 297.710 121.925,296.122 125.533,295.112 127.827 C 294.101 130.120,292.521 133.729,291.601 135.846 C 289.490 140.701,287.842 144.461,287.102 146.111 C 285.298 150.135,279.964 162.248,278.276 166.159 C 270.771 183.535,268.802 187.624,266.070 191.508 C 260.670 199.184,253.576 204.347,244.652 207.096 C 239.497 208.685,237.519 208.821,219.645 208.821 C 202.443 208.821,202.010 208.855,200.759 210.301 C 200.295 210.835,198.980 213.925,195.996 221.492 C 195.509 222.727,194.648 224.820,194.084 226.143 C 193.520 227.466,192.940 228.909,192.796 229.350 C 192.651 229.791,191.994 231.451,191.335 233.039 C 190.034 236.176,188.740 239.410,187.678 242.181 C 187.306 243.152,186.851 244.208,186.668 244.528 C 186.485 244.849,185.924 246.148,185.422 247.415 C 184.920 248.682,184.118 250.658,183.639 251.804 C 183.160 252.951,182.368 254.900,181.878 256.135 C 181.388 257.370,180.160 260.401,179.150 262.871 C 178.139 265.341,177.054 268.011,176.737 268.805 C 176.420 269.599,175.628 271.548,174.976 273.136 C 174.324 274.723,173.531 276.672,173.214 277.466 C 171.637 281.418,170.376 284.490,168.735 288.372 C 168.175 289.695,167.423 291.500,167.063 292.382 C 161.726 305.458,151.843 311.785,139.175 310.235 C 132.675 309.440,132.454 308.981,135.261 302.087 C 136.429 299.219,137.780 295.862,138.263 294.627 C 139.263 292.069,142.195 284.890,143.699 281.315 C 144.255 279.992,144.978 278.188,145.305 277.306 C 145.632 276.423,146.428 274.475,147.073 272.975 C 147.718 271.476,148.515 269.527,148.842 268.645 C 149.800 266.066,151.081 262.917,151.424 262.300 C 151.599 261.986,152.099 260.795,152.535 259.653 C 152.971 258.512,153.685 256.644,154.121 255.503 C 154.557 254.362,155.057 253.171,155.231 252.857 C 155.656 252.092,157.099 248.529,157.851 246.386 C 158.184 245.434,158.583 244.496,158.737 244.301 C 158.891 244.105,159.315 243.152,159.681 242.181 C 160.046 241.211,160.871 239.190,161.513 237.690 C 162.156 236.191,162.947 234.242,163.272 233.360 C 163.597 232.478,164.391 230.529,165.036 229.030 C 165.682 227.530,166.475 225.581,166.800 224.699 C 167.125 223.817,167.919 221.868,168.565 220.369 C 169.210 218.869,169.999 216.908,170.319 216.011 C 170.638 215.113,171.132 213.929,171.416 213.380 C 172.868 210.574,171.887 209.035,168.404 208.653 C 158.155 207.528,148.592 197.575,147.644 187.045 C 147.350 183.776,146.176 183.988,165.631 183.801 C 184.034 183.625,183.483 183.689,184.342 181.610 C 184.610 180.963,185.175 179.671,185.598 178.739 C 186.021 177.808,186.372 176.942,186.377 176.815 C 186.383 176.688,186.742 175.862,187.176 174.980 C 187.610 174.098,187.967 172.843,187.968 172.191 C 187.974 169.852,190.532 170.008,152.214 170.007 L 117.883 170.006 114.922 169.213 C 109.415 167.738,103.926 164.236,100.832 160.225 C 97.918 156.446,95.132 147.683,96.207 145.674 L 96.568 145.000 147.482 144.914 C 186.991 144.847,198.550 144.739,199.083 144.434 C 199.922 143.953,201.283 141.687,202.082 139.439 C 202.409 138.521,203.192 136.549,203.824 135.056 C 205.166 131.883,205.261 130.792,204.259 130.090 C 203.620 129.643,197.615 129.590,146.601 129.585 C 84.030 129.578,85.373 129.617,80.404 127.678 C 72.272 124.507,67.526 118.930,65.276 109.906 C 64.311 106.037,64.422 105.140,65.935 104.565 C 67.749 103.875,242.644 104.163,243.501 104.857 C 244.414 105.596,244.302 106.005,241.209 113.232 C 240.113 115.790,238.887 118.677,238.484 119.647 C 238.081 120.617,237.221 122.638,236.574 124.138 C 235.926 125.638,235.202 127.370,234.964 127.987 C 234.726 128.605,234.001 130.337,233.354 131.836 C 232.706 133.336,231.846 135.357,231.442 136.327 C 231.039 137.298,230.248 139.174,229.686 140.497 C 229.123 141.820,228.432 143.551,228.148 144.344 C 227.865 145.136,227.386 146.219,227.084 146.750 C 226.781 147.280,226.352 148.292,226.129 148.998 C 225.907 149.703,225.545 150.569,225.326 150.922 C 225.106 151.275,224.822 151.925,224.695 152.366 C 224.567 152.807,223.603 155.170,222.553 157.618 C 221.503 160.065,220.159 163.241,219.567 164.675 C 218.975 166.108,218.030 168.364,217.468 169.687 C 216.905 171.010,216.115 172.887,215.711 173.857 C 215.307 174.828,214.458 176.843,213.823 178.336 C 211.402 184.036,211.056 183.869,225.002 183.743 L 236.282 183.641 238.713 182.439 C 243.426 180.109,245.595 176.911,250.844 164.555 C 251.406 163.232,252.196 161.427,252.599 160.545 C 253.003 159.663,253.797 157.859,254.364 156.536 C 254.931 155.213,255.725 153.408,256.128 152.526 C 256.531 151.644,257.326 149.840,257.895 148.516 C 258.464 147.193,259.708 144.342,260.660 142.181 C 261.611 140.020,263.182 136.447,264.151 134.241 C 265.120 132.035,266.708 128.426,267.680 126.222 C 269.347 122.439,271.802 116.834,274.001 111.788 C 274.539 110.553,275.190 109.110,275.448 108.581 C 280.642 97.909,277.661 91.817,266.881 91.073 C 264.852 90.933,216.548 90.810,159.539 90.798 L 55.886 90.778 53.043 89.956 C 48.324 88.592,43.235 85.361,40.318 81.875 C 36.636 77.477,33.564 67.575,35.453 66.194 C 35.952 65.829,51.898 65.758,133.641 65.758 C 194.887 65.758,231.533 65.644,232.039 65.451 C 233.088 65.053,233.627 64.193,234.995 60.741 C 236.972 55.750,237.399 54.780,239.631 50.200 C 240.836 47.731,242.913 44.052,244.247 42.025 C 246.814 38.125,247.281 36.595,246.097 35.962 C 245.767 35.785,239.591 35.598,231.582 35.523 C 213.994 35.358,212.047 34.940,205.341 29.896 C 199.224 25.295,193.634 12.914,196.703 10.764 C 197.725 10.048,298.866 10.017,305.694 10.730 M292.000 35.918 C 280.559 38.376,269.603 47.302,263.976 58.752 C 263.426 59.870,262.760 61.219,262.495 61.748 C 260.960 64.815,262.155 65.606,268.966 66.032 C 272.620 66.260,275.134 66.609,277.695 67.243 C 282.402 68.409,282.501 68.372,285.164 64.424 C 291.027 55.735,298.404 48.573,306.931 43.291 C 312.817 39.645,312.896 38.487,307.373 36.756 C 304.312 35.797,294.942 35.286,292.000 35.918 M299.639 38.356 C 300.621 38.709,301.586 38.802,302.852 38.664 C 304.814 38.452,305.694 38.899,305.694 40.109 C 305.694 40.666,302.617 42.983,301.877 42.983 C 301.726 42.983,301.413 43.211,301.182 43.489 C 300.951 43.768,300.103 44.333,299.298 44.745 C 297.762 45.533,288.372 54.736,288.372 55.455 C 288.372 55.672,287.667 56.566,286.806 57.441 C 285.945 58.316,284.754 59.853,284.160 60.856 C 281.891 64.687,280.427 65.648,278.580 64.522 C 277.559 63.899,275.256 63.580,269.286 63.235 L 265.758 63.031 265.666 61.909 C 265.594 61.030,265.838 60.426,266.789 59.131 C 267.457 58.221,268.653 56.514,269.447 55.337 C 272.575 50.699,276.524 46.212,278.268 45.312 C 278.797 45.039,279.591 44.541,280.032 44.206 C 282.381 42.422,284.441 41.298,286.679 40.580 C 288.051 40.140,289.607 39.625,290.136 39.435 C 294.497 37.873,297.385 37.545,299.639 38.356 M32.509 59.909 C 32.177 60.120,127.223 60.116,200.321 59.902 C 215.670 59.857,184.274 59.787,130.553 59.747 C 76.832 59.706,32.712 59.779,32.509 59.909 M130.072 176.338 C 157.792 176.559,178.914 176.561,178.780 176.343 C 178.698 176.211,165.324 176.137,149.059 176.178 C 132.794 176.220,124.250 176.292,130.072 176.338 M138.832 315.877 C 141.003 315.933,144.467 315.933,146.530 315.877 C 148.593 315.821,146.816 315.776,142.582 315.776 C 138.348 315.776,136.660 315.822,138.832 315.877 " stroke="none" fill="#7d6b61" fill-rule="evenodd"></path><path id="path2" d="M196.703 10.764 C 193.634 12.914,199.224 25.295,205.341 29.896 C 212.047 34.940,213.994 35.358,231.582 35.523 C 239.591 35.598,245.767 35.785,246.097 35.962 C 247.281 36.595,246.814 38.125,244.247 42.025 C 242.913 44.052,240.836 47.731,239.631 50.200 C 237.399 54.780,236.972 55.750,234.995 60.741 C 233.627 64.193,233.088 65.053,232.039 65.451 C 231.533 65.644,194.887 65.758,133.641 65.758 C 51.898 65.758,35.952 65.829,35.453 66.194 C 33.564 67.575,36.636 77.477,40.318 81.875 C 43.235 85.361,48.324 88.592,53.043 89.956 L 55.886 90.778 159.539 90.798 C 216.548 90.810,264.852 90.933,266.881 91.073 C 277.661 91.817,280.642 97.909,275.448 108.581 C 275.190 109.110,274.539 110.553,274.001 111.788 C 271.802 116.834,269.347 122.439,267.680 126.222 C 266.708 128.426,265.120 132.035,264.151 134.241 C 263.182 136.447,261.611 140.020,260.660 142.181 C 259.708 144.342,258.464 147.193,257.895 148.516 C 257.326 149.840,256.531 151.644,256.128 152.526 C 255.725 153.408,254.931 155.213,254.364 156.536 C 253.797 157.859,253.003 159.663,252.599 160.545 C 252.196 161.427,251.406 163.232,250.844 164.555 C 245.595 176.911,243.426 180.109,238.713 182.439 L 236.282 183.641 225.002 183.743 C 211.056 183.869,211.402 184.036,213.823 178.336 C 214.458 176.843,215.307 174.828,215.711 173.857 C 216.115 172.887,216.905 171.010,217.468 169.687 C 218.030 168.364,218.975 166.108,219.567 164.675 C 220.159 163.241,221.503 160.065,222.553 157.618 C 223.603 155.170,224.567 152.807,224.695 152.366 C 224.822 151.925,225.106 151.275,225.326 150.922 C 225.545 150.569,225.907 149.703,226.129 148.998 C 226.352 148.292,226.781 147.280,227.084 146.750 C 227.386 146.219,227.865 145.136,228.148 144.344 C 228.432 143.551,229.123 141.820,229.686 140.497 C 230.248 139.174,231.039 137.298,231.442 136.327 C 231.846 135.357,232.706 133.336,233.354 131.836 C 234.001 130.337,234.726 128.605,234.964 127.987 C 235.202 127.370,235.926 125.638,236.574 124.138 C 237.221 122.638,238.081 120.617,238.484 119.647 C 238.887 118.677,240.113 115.790,241.209 113.232 C 244.302 106.005,244.414 105.596,243.501 104.857 C 242.644 104.163,67.749 103.875,65.935 104.565 C 64.422 105.140,64.311 106.037,65.276 109.906 C 67.526 118.930,72.272 124.507,80.404 127.678 C 85.373 129.617,84.030 129.578,146.601 129.585 C 197.615 129.590,203.620 129.643,204.259 130.090 C 205.261 130.792,205.166 131.883,203.824 135.056 C 203.192 136.549,202.409 138.521,202.082 139.439 C 201.283 141.687,199.922 143.953,199.083 144.434 C 198.550 144.739,186.991 144.847,147.482 144.914 L 96.568 145.000 96.207 145.674 C 95.132 147.683,97.918 156.446,100.832 160.225 C 103.926 164.236,109.415 167.738,114.922 169.213 L 117.883 170.006 152.214 170.007 C 190.532 170.008,187.974 169.852,187.968 172.191 C 187.967 172.843,187.610 174.098,187.176 174.980 C 186.742 175.862,186.383 176.688,186.377 176.815 C 186.372 176.942,186.021 177.808,185.598 178.739 C 185.175 179.671,184.610 180.963,184.342 181.610 C 183.483 183.689,184.034 183.625,165.631 183.801 C 146.176 183.988,147.350 183.776,147.644 187.045 C 148.592 197.575,158.155 207.528,168.404 208.653 C 171.887 209.035,172.868 210.574,171.416 213.380 C 171.132 213.929,170.638 215.113,170.319 216.011 C 169.999 216.908,169.210 218.869,168.565 220.369 C 167.919 221.868,167.125 223.817,166.800 224.699 C 166.475 225.581,165.682 227.530,165.036 229.030 C 164.391 230.529,163.597 232.478,163.272 233.360 C 162.947 234.242,162.156 236.191,161.513 237.690 C 160.871 239.190,160.046 241.211,159.681 242.181 C 159.315 243.152,158.891 244.105,158.737 244.301 C 158.583 244.496,158.184 245.434,157.851 246.386 C 157.099 248.529,155.656 252.092,155.231 252.857 C 155.057 253.171,154.557 254.362,154.121 255.503 C 153.685 256.644,152.971 258.512,152.535 259.653 C 152.099 260.795,151.599 261.986,151.424 262.300 C 151.081 262.917,149.800 266.066,148.842 268.645 C 148.515 269.527,147.718 271.476,147.073 272.975 C 146.428 274.475,145.632 276.423,145.305 277.306 C 144.978 278.188,144.255 279.992,143.699 281.315 C 142.195 284.890,139.263 292.069,138.263 294.627 C 137.780 295.862,136.429 299.219,135.261 302.087 C 132.454 308.981,132.675 309.440,139.175 310.235 C 151.843 311.785,161.726 305.458,167.063 292.382 C 167.423 291.500,168.175 289.695,168.735 288.372 C 170.376 284.490,171.637 281.418,173.214 277.466 C 173.531 276.672,174.324 274.723,174.976 273.136 C 175.628 271.548,176.420 269.599,176.737 268.805 C 177.054 268.011,178.139 265.341,179.150 262.871 C 180.160 260.401,181.388 257.370,181.878 256.135 C 182.368 254.900,183.160 252.951,183.639 251.804 C 184.118 250.658,184.920 248.682,185.422 247.415 C 185.924 246.148,186.485 244.849,186.668 244.528 C 186.851 244.208,187.306 243.152,187.678 242.181 C 188.740 239.410,190.034 236.176,191.335 233.039 C 191.994 231.451,192.651 229.791,192.796 229.350 C 192.940 228.909,193.520 227.466,194.084 226.143 C 194.648 224.820,195.509 222.727,195.996 221.492 C 198.980 213.925,200.295 210.835,200.759 210.301 C 202.010 208.855,202.443 208.821,219.645 208.821 C 237.519 208.821,239.497 208.685,244.652 207.096 C 257.506 203.137,265.334 195.477,272.069 180.273 C 274.543 174.685,277.309 168.398,278.276 166.159 C 279.964 162.248,285.298 150.135,287.102 146.111 C 287.842 144.461,289.490 140.701,291.601 135.846 C 292.521 133.729,294.101 130.120,295.112 127.827 C 296.122 125.533,297.710 121.925,298.639 119.808 C 304.133 107.293,305.507 98.893,303.335 91.099 C 302.218 87.087,302.254 86.413,303.749 83.441 C 314.503 62.052,335.312 53.547,357.825 61.341 C 363.096 63.166,363.515 62.889,361.814 58.701 C 361.491 57.907,360.196 54.659,358.935 51.484 C 357.674 48.308,356.126 44.771,355.495 43.625 C 354.864 42.478,353.901 40.696,353.356 39.666 C 345.364 24.548,326.119 12.865,305.694 10.730 C 298.866 10.017,197.725 10.048,196.703 10.764 M307.373 36.756 C 312.896 38.487,312.817 39.645,306.931 43.291 C 298.404 48.573,291.027 55.735,285.164 64.424 C 282.501 68.372,282.402 68.409,277.695 67.243 C 275.134 66.609,272.620 66.260,268.966 66.032 C 262.155 65.606,260.960 64.815,262.495 61.748 C 262.760 61.219,263.426 59.870,263.976 58.752 C 269.603 47.302,280.559 38.376,292.000 35.918 C 294.942 35.286,304.312 35.797,307.373 36.756 " stroke="none" fill="#ff924c" fill-rule="evenodd"></path></g></svg>